<?xml version="1.0" standalone="no"?>
<!DOCTYPE svg PUBLIC "-//W3C//DTD SVG 20010904//EN"
 "http://www.w3.org/TR/2001/REC-SVG-20010904/DTD/svg10.dtd">
<svg version="1.0" xmlns="http://www.w3.org/2000/svg"
 width="1068.000000pt" height="596.000000pt" viewBox="0 0 1068.000000 596.000000"
 preserveAspectRatio="xMidYMid meet">

<g transform="translate(0.000000,596.000000) scale(0.100000,-0.100000)"
fill="#000000" stroke="none">
<path d="M10 2980 l0 -2980 5335 0 5335 0 0 1566 0 1565 -71 -38 c-39 -21 -79
-49 -88 -63 -22 -36 -32 -41 -64 -35 -23 4 -86 -24 -305 -136 -153 -77 -284
-148 -293 -157 -16 -16 -188 -378 -193 -404 -1 -7 -12 -29 -24 -48 -12 -19
-22 -44 -22 -54 0 -10 -6 -24 -13 -30 -8 -6 -38 -64 -67 -128 -29 -65 -55
-116 -57 -114 -3 3 16 46 94 216 14 30 37 80 50 110 14 30 57 123 96 205 68
146 161 349 207 450 12 28 28 62 36 76 13 25 13 26 -121 102 -74 42 -138 77
-143 77 -5 0 -26 -37 -47 -82 -143 -305 -173 -363 -182 -343 -4 11 -35 66 -68
123 -33 57 -72 124 -86 150 -14 26 -36 64 -47 85 -12 20 -31 54 -43 75 -12 20
-26 42 -31 49 -11 14 -27 111 -37 223 l-6 76 65 -36 c256 -141 484 -277 487
-291 5 -16 42 -39 65 -39 8 0 257 129 803 416 l100 53 3 1046 c1 575 -1 1045
-4 1045 -7 0 -181 -88 -474 -239 -107 -56 -293 -151 -414 -212 -179 -92 -222
-118 -238 -144 -20 -35 -54 -51 -74 -35 -14 13 -248 -101 -257 -124 -4 -9 -4
-23 -1 -31 4 -9 87 -63 186 -122 99 -59 184 -116 190 -126 22 -42 3 -63 -119
-126 -65 -33 -134 -69 -153 -80 -19 -11 -54 -30 -77 -42 -24 -13 -43 -25 -43
-29 0 -3 24 -20 54 -37 41 -23 57 -28 66 -19 8 8 10 7 5 -6 -4 -9 0 -27 8 -40
27 -42 8 -59 -171 -151 -93 -48 -176 -87 -183 -87 -19 0 25 26 178 106 149 78
173 96 157 122 -12 19 -35 20 -145 7 -54 -6 -71 -5 -90 9 -32 22 -38 21 -131
-24 -108 -53 -122 -46 -19 9 44 24 81 47 81 51 0 4 17 12 38 19 21 7 48 21 61
30 l23 18 -153 95 c-85 52 -283 172 -441 268 -243 146 -295 174 -336 178 -45
4 -61 -2 -241 -93 -212 -106 -251 -130 -251 -156 0 -25 -18 -33 -75 -35 -37 0
-72 -11 -134 -42 -47 -23 -86 -40 -88 -38 -2 1 34 22 80 46 91 47 117 67 117
87 0 7 9 22 20 33 16 16 24 18 50 9 34 -12 52 -5 295 124 66 35 137 70 158 76
78 26 101 15 508 -230 210 -126 383 -229 385 -229 2 0 34 -19 71 -41 l68 -42
195 101 c107 55 199 107 205 116 7 11 6 22 -1 34 -6 9 -87 63 -180 119 -93 56
-178 114 -188 127 -17 23 -18 27 -4 48 8 13 66 50 129 83 100 52 114 64 117
88 5 41 39 59 84 45 35 -10 43 -7 354 155 393 203 752 388 781 402 22 9 23 16
23 118 l0 107 -5335 0 -5335 0 0 -2980z m6391 2560 c376 -226 692 -420 701
-431 32 -37 11 -59 -120 -127 -67 -34 -122 -61 -122 -58 0 3 44 28 98 57 53
28 105 59 115 67 35 31 15 64 -68 112 -74 42 -99 57 -485 290 -369 222 -409
246 -482 289 -81 46 -324 195 -332 202 -40 37 95 -42 695 -401z m119 -680 c45
-27 85 -50 88 -50 4 0 41 18 82 40 77 41 100 47 100 30 0 -6 -33 -27 -74 -47
-41 -20 -73 -40 -70 -45 11 -18 144 -89 155 -83 7 5 10 1 7 -11 -3 -16 -24
-22 -137 -41 l-133 -22 -48 30 c-26 16 -50 29 -54 29 -3 0 -25 14 -48 30 -46
34 -45 40 3 11 l32 -20 80 41 c60 30 77 42 66 49 -8 5 -44 28 -81 49 -37 22
-70 45 -73 50 -14 23 29 7 105 -40z m123 -752 c8 -28 -10 -60 -31 -56 -12 2
-18 15 -20 41 -3 33 -1 37 21 37 17 0 26 -7 30 -22z m37 -19 c0 -23 -4 -38
-10 -34 -5 3 -7 12 -3 20 3 9 0 21 -6 29 -6 7 -8 16 -4 19 15 16 23 4 23 -34z
m50 7 c0 -19 -4 -38 -10 -41 -6 -4 -10 7 -10 24 0 17 -5 31 -11 31 -5 0 -7 5
-4 10 15 24 35 9 35 -24z m1290 -105 c7 -14 7 -63 0 -158 -5 -76 -10 -150 -10
-165 l0 -28 108 0 c159 0 182 -24 119 -123 -18 -29 -58 -94 -88 -145 -29 -51
-64 -110 -76 -130 -12 -20 -30 -50 -39 -67 -48 -86 -139 -231 -148 -237 -20
-14 -46 -8 -60 15 -13 19 -12 45 8 220 12 109 20 200 17 202 -2 3 -54 5 -116
5 -168 0 -169 7 -49 204 48 77 98 161 112 186 14 25 39 68 57 95 18 28 45 71
60 98 24 41 31 47 61 47 23 0 37 -6 44 -19z m-1385 -420 c-3 -6 -27 -13 -53
-16 -78 -11 -82 -14 -112 -78 -15 -34 -46 -100 -67 -147 -39 -82 -284 -607
-365 -780 -50 -106 -72 -160 -67 -164 4 -4 253 -148 422 -245 17 -10 104 -60
192 -111 88 -51 230 -133 315 -182 85 -49 160 -94 165 -100 6 -6 -6 -2 -25 9
-58 34 -439 253 -476 274 -54 30 -90 51 -229 131 -71 41 -150 86 -175 100 -83
46 -210 121 -210 124 0 1 16 38 36 81 20 43 56 121 79 173 24 52 66 142 93
200 27 58 59 125 70 150 11 25 39 86 62 135 23 50 50 108 60 130 10 22 46 99
79 170 l60 130 63 11 c84 15 90 16 83 5z m3545 -16 c18 -22 4 -65 -21 -65 -24
0 -33 21 -25 55 7 28 27 33 46 10z m68 -28 c3 -35 1 -38 -20 -35 -24 3 -35 34
-24 64 12 30 41 11 44 -29z m52 3 c0 -16 -4 -31 -9 -34 -9 -6 -22 53 -14 67 9
15 23 -5 23 -33z m-8490 -342 c0 -38 -8 -52 -71 -128 -66 -80 -189 -252 -189
-264 0 -3 61 -6 135 -6 l135 0 0 -50 0 -50 -215 0 -215 0 0 36 c0 29 17 62 76
153 42 64 99 144 126 178 l49 62 -118 3 -118 3 -3 39 c-6 69 -14 66 208 66
l200 0 0 -42z m1313 -126 c91 -259 76 -246 125 -112 23 63 54 151 70 195 l27
80 63 3 c49 2 62 0 62 -12 0 -22 -80 -235 -146 -391 l-58 -135 -62 0 -62 0
-45 103 c-42 96 -147 365 -162 415 -6 21 -4 22 62 22 l68 0 58 -168z m614 49
c29 -63 60 -133 69 -155 l16 -41 16 35 c9 19 42 90 73 158 l58 122 54 0 c52 0
56 -2 61 -27 8 -39 24 -235 32 -385 l7 -128 -60 0 -61 0 -7 165 c-4 91 -10
163 -14 160 -4 -2 -32 -61 -61 -130 l-53 -125 -46 0 -46 0 -55 130 c-58 140
-68 145 -69 39 -1 -31 -4 -97 -7 -147 l-7 -92 -60 0 -59 0 6 108 c9 142 25
336 32 390 l6 43 61 -3 61 -3 53 -114z m-1580 -26 c58 -34 67 -64 71 -231 l4
-152 -51 -11 c-81 -17 -189 -14 -237 8 -96 44 -95 186 1 227 19 8 64 14 100
14 58 0 65 2 65 20 0 33 -43 53 -103 47 -29 -3 -58 -7 -66 -9 -10 -2 -17 11
-24 40 -4 24 -6 46 -3 49 26 27 198 25 243 -2z m457 -9 c63 -37 91 -94 91
-186 0 -61 -5 -83 -25 -120 -35 -63 -95 -93 -172 -87 l-57 5 -3 -71 -3 -72
-57 -3 -58 -3 0 275 0 274 63 10 c89 15 172 7 221 -22z m3084 -12 c3 -31 -18
-52 -39 -38 -11 6 -12 58 -2 68 16 16 38 -1 41 -30z m41 -1 c-1 -22 -3 -30 -6
-18 -3 11 -9 25 -14 31 -5 6 -6 14 -2 17 15 16 23 5 22 -30z m69 9 c4 -23 -13
-52 -29 -52 -18 0 -30 39 -19 61 14 26 44 21 48 -9z m-4888 -801 c0 -25 3 -28
27 -23 34 6 53 -19 53 -70 0 -56 -28 -52 -32 5 -2 34 -7 42 -23 42 -16 0 -21
-8 -23 -42 -5 -75 -22 -46 -22 37 0 47 4 80 10 80 6 0 10 -13 10 -29z m1040
-51 c0 -47 -4 -80 -10 -80 -6 0 -10 33 -10 80 0 47 4 80 10 80 6 0 10 -33 10
-80z m300 59 c0 -5 -7 -9 -15 -9 -21 0 -19 -16 3 -25 16 -6 16 -7 0 -19 -12
-8 -18 -27 -18 -50 0 -54 -28 -49 -32 6 -2 31 -8 44 -20 46 -15 3 -18 -4 -18
-42 0 -34 -4 -46 -15 -46 -11 0 -15 12 -15 44 0 26 -5 47 -12 50 -10 5 -10 7
0 12 6 3 12 12 12 20 0 8 7 14 15 14 8 0 15 -7 15 -15 0 -8 9 -15 20 -15 11 0
20 4 20 9 0 17 30 40 45 35 8 -4 15 -10 15 -15z m1050 0 c0 -5 -7 -9 -15 -9
-8 0 -15 -4 -15 -10 0 -5 5 -10 10 -10 6 0 10 -7 10 -15 0 -8 -4 -15 -10 -15
-5 0 -10 -18 -10 -40 0 -29 -4 -40 -15 -40 -11 0 -15 11 -15 38 0 21 -6 44
-12 51 -10 11 -10 14 0 18 6 3 12 11 12 18 0 8 8 18 17 23 18 11 43 5 43 -9z
m500 0 c0 -5 -7 -9 -15 -9 -8 0 -15 -4 -15 -10 0 -5 5 -10 10 -10 6 0 10 -7
10 -15 0 -8 -4 -15 -10 -15 -5 0 -10 -18 -10 -40 0 -29 -4 -40 -15 -40 -11 0
-15 11 -15 38 0 21 -6 44 -12 51 -10 11 -10 14 0 18 6 3 12 11 12 18 0 8 8 18
17 23 18 11 43 5 43 -9z m628 -7 c2 -15 12 -22 35 -24 39 -4 57 -42 39 -83
-10 -21 -18 -25 -57 -25 l-45 0 0 81 c0 60 3 80 13 77 6 -3 13 -14 15 -26z
m-3558 3 c0 -8 -9 -15 -20 -15 -18 0 -20 -7 -20 -60 0 -47 -3 -60 -15 -60 -12
0 -15 13 -15 60 0 53 -2 60 -20 60 -11 0 -20 7 -20 15 0 12 13 15 55 15 42 0
55 -3 55 -15z m421 5 c32 -18 22 -31 -20 -24 -33 5 -41 3 -50 -14 -17 -32 -13
-50 13 -67 19 -13 29 -14 45 -6 24 13 42 -6 20 -20 -27 -18 -81 -5 -102 23
-45 61 26 144 94 108z m604 -14 c21 -32 5 -64 -36 -73 -22 -4 -29 -11 -29 -29
0 -15 -6 -24 -15 -24 -12 0 -15 15 -15 75 l0 75 40 0 c31 0 43 -5 55 -24z
m900 14 c3 -6 -1 -13 -9 -16 -22 -9 -23 -104 -1 -104 8 0 15 -4 15 -10 0 -5
-18 -10 -40 -10 -22 0 -40 5 -40 10 0 6 5 10 10 10 6 0 10 23 10 50 0 28 -4
50 -10 50 -5 0 -10 7 -10 15 0 17 65 22 75 5z m1313 -46 l14 -49 15 38 c8 20
21 37 28 37 8 0 19 -17 26 -37 l12 -38 17 49 c15 47 40 74 40 44 0 -26 -42
-138 -51 -138 -6 0 -18 18 -28 41 l-18 40 -17 -41 c-9 -23 -22 -40 -28 -38
-12 4 -48 107 -48 136 0 31 24 2 38 -44z m562 42 c0 -7 -7 -19 -15 -26 -13
-10 -12 -14 7 -30 19 -15 21 -22 13 -46 -9 -24 -17 -30 -48 -32 -27 -2 -39 1
-43 13 -9 23 1 28 25 13 15 -9 23 -10 32 -1 18 18 3 46 -21 40 -24 -6 -26 10
-3 35 15 17 15 18 -10 18 -17 0 -27 5 -27 15 0 11 12 15 45 15 32 0 45 -4 45
-14z m164 -8 c36 -51 9 -128 -44 -128 -35 0 -50 23 -50 76 0 67 61 100 94 52z
m-1854 -3 c0 -8 7 -15 15 -15 8 0 15 -4 15 -9 0 -5 -7 -11 -15 -15 -10 -3 -15
-19 -15 -46 0 -22 -4 -40 -10 -40 -5 0 -10 18 -10 40 0 27 -5 43 -15 46 -8 4
-15 10 -15 15 0 5 7 9 15 9 8 0 15 7 15 15 0 8 5 15 10 15 6 0 10 -7 10 -15z
m-1882 -27 c7 -7 12 -20 12 -30 0 -14 -8 -18 -41 -18 -28 0 -39 -4 -36 -12 2
-7 17 -13 33 -13 41 0 46 -19 6 -23 -60 -6 -93 48 -55 90 18 20 63 24 81 6z
m302 2 c0 -5 -9 -12 -20 -15 -16 -5 -20 -15 -20 -46 0 -28 -4 -39 -15 -39 -11
0 -15 13 -15 54 l0 54 35 0 c19 0 35 -4 35 -8z m107 -16 c15 -24 15 -29 2 -53
-27 -48 -109 -32 -109 22 0 56 76 77 107 31z m103 11 c-3 -5 -15 -9 -27 -7
-13 1 -23 -2 -23 -8 0 -5 6 -10 13 -10 27 0 50 -26 42 -49 -6 -18 -13 -22 -43
-19 -21 2 -35 7 -32 13 3 6 15 9 28 7 27 -3 30 14 3 23 -56 17 -45 69 13 63
17 -2 29 -7 26 -13z m98 -3 c3 -9 -3 -11 -22 -6 -15 3 -26 2 -26 -4 0 -5 11
-13 24 -16 29 -7 41 -33 25 -53 -14 -16 -76 -14 -71 2 2 6 14 9 27 7 33 -4 32
14 0 22 -31 8 -42 31 -24 52 14 17 60 15 67 -4z m372 -39 l0 -54 -47 3 c-42 3
-49 7 -57 30 -7 18 -6 35 2 53 10 22 17 25 57 23 l45 -1 0 -54z m277 31 c15
-24 15 -29 2 -53 -27 -48 -109 -32 -109 22 0 56 76 77 107 31z m103 15 c0 -6
-9 -13 -20 -16 -16 -4 -20 -14 -20 -44 0 -28 -4 -39 -15 -39 -11 0 -15 13 -15
53 l0 54 35 1 c19 1 35 -3 35 -9z m168 -2 c18 -14 16 -97 -2 -97 -10 0 -16 14
-18 43 -2 29 -8 42 -18 42 -10 0 -16 -13 -18 -42 -2 -29 -8 -43 -17 -43 -9 0
-15 14 -17 43 -2 29 -8 42 -18 42 -10 0 -16 -13 -18 -42 -2 -29 -8 -43 -18
-43 -10 0 -14 14 -14 55 l0 55 73 -2 c39 0 78 -5 85 -11z m286 -3 c3 -9 6 -33
6 -55 0 -28 -4 -39 -15 -39 -11 0 -15 12 -15 46 0 38 -3 45 -17 42 -13 -2 -19
-15 -21 -46 -2 -28 -8 -42 -18 -42 -10 0 -14 14 -14 55 l0 55 44 0 c31 0 46
-5 50 -16z m194 4 c7 -7 12 -20 12 -30 0 -14 -8 -18 -41 -18 -36 0 -40 -2 -29
-16 7 -8 23 -14 34 -12 12 1 22 -2 24 -7 1 -6 -15 -10 -35 -10 -30 0 -40 5
-52 26 -13 24 -13 29 2 53 19 28 63 36 85 14z m102 3 c0 -3 -9 -12 -20 -19
-14 -8 -20 -23 -20 -47 0 -24 -5 -35 -15 -35 -11 0 -15 13 -15 54 l0 54 35 0
c19 0 35 -3 35 -7z m200 -48 l0 -54 -47 3 c-42 3 -49 7 -57 30 -7 18 -6 35 2
53 10 22 17 25 57 23 l45 -1 0 -54z m118 38 c3 -10 -3 -12 -26 -6 -24 5 -33 2
-40 -12 -17 -31 4 -56 40 -48 23 6 29 4 26 -6 -7 -22 -70 -24 -85 -3 -18 24
-16 59 3 79 19 19 75 17 82 -4z m110 7 c7 -7 12 -20 12 -30 0 -14 -8 -18 -41
-18 -28 0 -39 -4 -36 -12 2 -7 17 -13 33 -13 41 0 46 -19 6 -23 -60 -6 -93 48
-55 90 18 20 63 24 81 6z m262 -3 c7 -8 13 -26 13 -40 0 -36 -21 -55 -59 -55
-35 0 -54 20 -54 59 0 44 72 70 100 36z m100 6 c0 -3 -9 -12 -20 -19 -14 -8
-20 -23 -20 -47 0 -24 -5 -35 -15 -35 -11 0 -15 13 -15 54 l0 54 35 0 c19 0
35 -3 35 -7z m370 -10 c17 -33 11 -41 -31 -41 -28 0 -39 -4 -36 -12 2 -7 18
-12 36 -11 43 2 35 -21 -9 -25 -38 -4 -60 16 -60 54 0 49 77 76 100 35z m350
-76 c0 -8 -7 -15 -15 -15 -8 0 -15 7 -15 15 0 8 7 15 15 15 8 0 15 -7 15 -15z
m5570 -251 c0 -2 -9 0 -20 6 -11 6 -20 13 -20 16 0 2 9 0 20 -6 11 -6 20 -13
20 -16z m-827 -9 c-3 -9 -8 -14 -10 -11 -3 3 -2 9 2 15 9 16 15 13 8 -4z m877
-21 c0 -2 -9 0 -20 6 -11 6 -20 13 -20 16 0 2 9 0 20 -6 11 -6 20 -13 20 -16z
m-895 -23 c-3 -6 -16 -11 -28 -11 -21 0 -21 1 3 13 27 15 36 14 25 -2z m940
-1 c3 -6 -1 -7 -9 -4 -18 7 -21 14 -7 14 6 0 13 -4 16 -10z m-1017 -17 c-10
-2 -28 -2 -40 0 -13 2 -5 4 17 4 22 1 32 -1 23 -4z m1117 -46 c6 -5 -9 0 -32
12 -23 11 -45 26 -49 33 -7 12 61 -26 81 -45z m-1188 37 c-3 -3 -12 -4 -19 -1
-8 3 -5 6 6 6 11 1 17 -2 13 -5z m-52 -14 c-11 -5 -40 -8 -65 -8 -45 1 -45 1
-10 8 19 4 49 8 65 8 25 0 27 -1 10 -8z m-132 -17 c-7 -2 -21 -2 -30 0 -10 3
-4 5 12 5 17 0 24 -2 18 -5z m-70 -10 c-7 -2 -19 -2 -25 0 -7 3 -2 5 12 5 14
0 19 -2 13 -5z m-50 -10 c-7 -2 -21 -2 -30 0 -10 3 -4 5 12 5 17 0 24 -2 18
-5z m-90 -10 c-7 -2 -19 -2 -25 0 -7 3 -2 5 12 5 14 0 19 -2 13 -5z m1632 -3
c3 -6 -1 -7 -9 -4 -18 7 -21 14 -7 14 6 0 13 -4 16 -10z m-1682 -7 c-7 -2 -21
-2 -30 0 -10 3 -4 5 12 5 17 0 24 -2 18 -5z m-66 -9 c-3 -3 -12 -4 -19 -1 -8
3 -5 6 6 6 11 1 17 -2 13 -5z m-1673 -25 c20 -12 36 -23 36 -25 0 -5 -44 18
-70 35 -27 19 -2 11 34 -10z m1596 11 c-14 -4 -41 -8 -60 -8 l-35 1 40 7 c57
10 87 10 55 0z m-103 -16 c-3 -3 -12 -4 -19 -1 -8 3 -5 6 6 6 11 1 17 -2 13
-5z m-144 -21 c-7 -2 -21 -2 -30 0 -10 3 -4 5 12 5 17 0 24 -2 18 -5z m-66 -9
c-3 -3 -12 -4 -19 -1 -8 3 -5 6 6 6 11 1 17 -2 13 -5z m-150 -20 c-3 -3 -12
-4 -19 -1 -8 3 -5 6 6 6 11 1 17 -2 13 -5z m-44 -11 c-7 -2 -19 -2 -25 0 -7 3
-2 5 12 5 14 0 19 -2 13 -5z m-56 -9 c-3 -3 -12 -4 -19 -1 -8 3 -5 6 6 6 11 1
17 -2 13 -5z m-194 -31 c-7 -2 -19 -2 -25 0 -7 3 -2 5 12 5 14 0 19 -2 13 -5z
m-206 -29 c-3 -3 -12 -4 -19 -1 -8 3 -5 6 6 6 11 1 17 -2 13 -5z m1713 -32 c0
-2 -12 -19 -27 -38 -24 -29 -34 -34 -72 -34 -42 0 -43 1 -28 18 10 10 17 23
17 28 0 21 25 33 66 31 24 -1 44 -3 44 -5z m-4202 -27 c-8 -8 -290 -55 -334
-55 -22 0 -49 7 -60 15 -18 14 -17 15 8 4 21 -9 57 -7 175 10 81 12 155 24
163 26 26 5 54 5 48 0z m2937 -1025 c-9 -38 -31 -50 -66 -38 -25 9 -27 12 -17
31 15 30 28 37 61 35 25 -2 27 -5 22 -28z m-1162 -7 c-7 -2 -19 -2 -25 0 -7 3
-2 5 12 5 14 0 19 -2 13 -5z m-78 -14 c-22 -4 -51 -8 -65 -7 -35 1 34 15 75
16 25 0 23 -2 -10 -9z"/>
<path d="M6532 4738 c-39 -22 -70 -44 -67 -49 3 -4 21 -16 39 -24 31 -15 43
-15 142 0 60 9 110 17 112 19 2 3 -133 88 -148 93 -3 1 -38 -17 -78 -39z"/>
<path d="M6604 4106 c-6 -17 2 -36 17 -36 12 0 12 37 -1 45 -6 3 -13 -1 -16
-9z"/>
<path d="M10150 3525 c0 -14 5 -25 10 -25 6 0 10 11 10 25 0 14 -4 25 -10 25
-5 0 -10 -11 -10 -25z"/>
<path d="M10215 3540 c-7 -23 2 -43 16 -35 12 8 12 42 0 50 -5 3 -12 -4 -16
-15z"/>
<path d="M2005 2847 c-13 -10 -16 -21 -12 -39 7 -27 30 -38 85 -38 31 0 32 1
32 45 l0 45 -43 0 c-24 0 -51 -6 -62 -13z"/>
<path d="M2450 2895 l0 -104 36 -7 c66 -12 111 46 98 128 -9 61 -38 88 -90 88
l-44 0 0 -105z"/>
<path d="M5664 3076 c-8 -21 3 -49 16 -41 5 3 10 15 10 25 0 25 -18 36 -26 16z"/>
<path d="M5770 3066 c0 -14 4 -27 9 -31 12 -7 25 31 16 45 -11 18 -25 10 -25
-14z"/>
<path d="M4441 2212 c-7 -14 -7 -24 3 -37 19 -27 48 -12 44 22 -4 33 -32 42
-47 15z"/>
<path d="M1840 2240 c0 -16 5 -21 23 -18 12 2 22 10 22 18 0 8 -10 16 -22 18
-18 3 -23 -2 -23 -18z"/>
<path d="M4781 2239 c-12 -34 1 -74 25 -74 16 0 19 7 19 45 0 35 -4 45 -18 48
-11 2 -20 -5 -26 -19z"/>
<path d="M1045 2220 c-4 -6 5 -10 20 -10 15 0 24 4 20 10 -3 6 -12 10 -20 10
-8 0 -17 -4 -20 -10z"/>
<path d="M1444 2216 c-11 -29 1 -51 26 -51 19 0 26 6 28 24 5 35 -42 58 -54
27z"/>
<path d="M2017 2223 c-13 -12 -7 -54 9 -60 8 -3 22 1 31 9 12 12 13 20 4 37
-12 21 -31 27 -44 14z"/>
<path d="M2294 2216 c-11 -29 1 -51 26 -51 19 0 26 6 28 24 5 35 -42 58 -54
27z"/>
<path d="M3055 2220 c-4 -6 5 -10 19 -10 14 0 26 5 26 10 0 6 -9 10 -19 10
-11 0 -23 -4 -26 -10z"/>
<path d="M3347 2223 c-13 -12 -7 -54 9 -60 8 -3 22 1 31 9 12 12 13 20 4 37
-12 21 -31 27 -44 14z"/>
<path d="M3585 2220 c-4 -6 5 -10 20 -10 15 0 24 4 20 10 -3 6 -12 10 -20 10
-8 0 -17 -4 -20 -10z"/>
<path d="M3847 2224 c-13 -13 -7 -55 9 -61 24 -9 51 23 38 45 -12 19 -36 27
-47 16z"/>
<path d="M4315 2220 c-4 -6 5 -10 20 -10 15 0 24 4 20 10 -3 6 -12 10 -20 10
-8 0 -17 -4 -20 -10z"/>
<path d="M9113 4362 c-29 -14 -53 -29 -53 -33 0 -4 13 -12 29 -19 22 -9 46 -9
100 -1 38 6 73 11 78 11 8 0 -14 16 -67 47 l-35 21 -52 -26z"/>
<path d="M10285 3394 c-489 -255 -478 -249 -482 -260 -1 -5 40 -33 92 -63 52
-30 95 -59 95 -65 0 -6 -27 -67 -60 -136 -32 -69 -55 -126 -50 -128 5 -2 42
14 82 36 40 22 154 81 253 132 165 85 216 118 227 151 2 6 26 13 53 14 36 2
70 13 118 39 l67 37 0 225 c0 123 -1 224 -2 223 -2 -1 -178 -93 -393 -205z"/>
</g>
</svg>
